<?xml version="1.0" encoding="UTF-8"?>
<svg id="Layer_1" data-name="Layer 1" xmlns="http://www.w3.org/2000/svg" viewBox="0 0 480.55 306.25">
  <path d="m92.83,60.48h-35.52c-5.78,0-11.28,1.07-16.33,2.98-5.21,2.01-9.95,4.92-13.89,8.52-4.1,3.69-7.38,8.14-9.63,13.08-2.11,4.68-3.28,9.85-3.28,15.29v151.88c0,5.43,1.17,10.6,3.28,15.31,2.25,4.91,5.53,9.36,9.63,13.08,3.95,3.6,8.68,6.51,13.89,8.49,5.05,1.92,10.55,2.99,16.33,2.99h9.09l51.67-51.67c-8.11-9.19-14.76-19.77-19.53-31.36-5.52-13.26-8.54-27.78-8.54-42.96,0-31.03,12.58-59.17,32.92-79.48,20.35-20.35,48.45-32.93,79.49-32.93,15.2,0,29.7,3.02,42.99,8.52,11.47,4.76,21.97,11.33,31.13,19.35l27.28-29.7-7.84-19.96c-.96-2.41-2.36-4.71-4.07-6.8-1.86-2.21-4.1-4.18-6.54-5.84-2.44-1.63-5.12-2.93-7.9-3.83-2.55-.82-5.23-1.28-7.84-1.28h-134.44c-2.65,0-5.29.46-7.85,1.28-2.76.9-5.43,2.2-7.84,3.83-2.44,1.63-4.68,3.63-6.54,5.87-1.71,2.06-3.11,4.36-4.07,6.77l-11.25,28.57h-4.79Zm109.59,19.17c47.75,0,86.46,38.71,86.46,86.46s-38.71,86.47-86.46,86.47-86.46-38.71-86.46-86.47,38.71-86.46,86.46-86.46h0ZM57.31,46.32h30.69l7.7-19.56c1.49-3.8,3.69-7.4,6.4-10.66,2.73-3.28,5.99-6.19,9.5-8.57,3.52-2.36,7.38-4.24,11.42-5.56,3.98-1.27,8.11-1.97,12.15-1.97h134.44c4.04,0,8.16.7,12.18,1.97,4.01,1.31,7.9,3.23,11.42,5.59,3.54,2.35,6.77,5.26,9.52,8.54,2.71,3.26,4.91,6.86,6.4,10.66l11.1,28.16-43.13,46.94-5.2-5.23c-9.09-9.09-19.91-16.39-31.89-21.37-11.53-4.77-24.24-7.4-37.61-7.4-27.12,0-51.7,10.98-69.46,28.77-17.78,17.79-28.8,42.34-28.8,69.48,0,13.35,2.65,26.04,7.44,37.61,4.94,11.97,12.26,22.79,21.36,31.85l5,5.03-65.68,65.65h-14.97c-7.53,0-14.73-1.39-21.37-3.93-6.86-2.61-13.1-6.48-18.36-11.25-5.5-4.99-9.95-11.01-12.99-17.76-2.96-6.48-4.59-13.63-4.59-21.09V100.35c0-7.47,1.63-14.59,4.59-21.1,3.05-6.72,7.49-12.73,12.99-17.73,5.26-4.8,11.5-8.66,18.36-11.28,6.63-2.53,13.84-3.93,21.37-3.93Z" fill-rule="evenodd"/>
  <g>
    <text transform="translate(183.72 217.24)" fill="#fff" font-family="LangitaPersonalUsed, Langita" font-size="146.55"><tspan x="0" y="0">A</tspan></text>
    <text transform="translate(280.99 217.24)" font-family="LangitaPersonalUsed, Langita" font-size="146.55"><tspan x="0" y="0">DA</tspan></text>
  </g>
</svg>